<svg version="1.1" id="Layer_1" xmlns="http://www.w3.org/2000/svg" xmlns:xlink="http://www.w3.org/1999/xlink" x="0px" y="0px"
	 width="500px" height="500px" enable-background="new 0 0 500 500" xml:space="preserve">
<path fill="#1D1D1C" d="M257.699,154.837c0-9.303,0.424-18.267,1.733-26.935c1.289-8.664,3.619-16.223,6.997-22.673
	c3.354-6.475,10.794-13.289,16.335-16.156c6.308-3.279,13.942-6.029,23.529-6.029c6.229,0,16.521,0.406,26.373,5.021L338,74.976
	c-4.133-2.555-10.48-4.657-19.012-6.19c-1.832-0.253-3.682-0.448-5.641-0.586c-1.957-0.128-3.935-0.199-6.032-0.199
	c-17.594,0-31.086,5.562-42.993,16.675c-8.04,7.502-13.787,17.125-17.27,28.889c-3.524,11.746-5.266,25.65-5.266,41.653
	l-0.01,27.437H212v13.689h29.591v189.908c0,19.372-12.655,30.633-26.246,30.633c-1.111,0-2.224-0.058-3.345-0.113v14.825
	c1.958,0.273,3.867,0.404,5.697,0.404c22.535,0,40.13-17.429,40.13-47.704V196.343h54.311v-13.689h-54.438V154.837z"/>
</svg>
