<svg version="1.1" id="Layer_1" xmlns="http://www.w3.org/2000/svg" xmlns:xlink="http://www.w3.org/1999/xlink" x="0px" y="0px"
	 enable-background="new 0 0 500 500" xml:space="preserve">
<path d="M0,0v500h500V0H0z M332.665,88.065c-9.852-4.615-20.144-5.021-26.372-5.021c-9.587,0-17.222,2.75-23.529,6.029
	c-5.541,2.867-12.98,9.681-16.335,16.156c-3.378,6.45-5.708,14.009-6.997,22.673c-1.309,8.668-1.732,17.632-1.732,26.935h0.001
	v27.817h54.438v13.689h-54.311v187.954c0,30.275-17.596,47.704-40.131,47.704c-1.829,0-3.738-0.131-5.696-0.404v-14.825
	c1.121,0.056,2.233,0.113,3.345,0.113c13.591,0,26.246-11.261,26.246-30.633V196.344H212v-13.689h29.775l0.011-27.437
	c0-16.003,1.741-29.907,5.266-41.653c3.483-11.764,9.229-21.387,17.27-28.889c11.907-11.113,25.399-16.675,42.993-16.675
	c2.097,0,4.075,0.071,6.032,0.199c1.959,0.138,3.809,0.333,5.641,0.586c8.532,1.533,14.879,3.635,19.013,6.19L332.665,88.065z"/>
</svg>
